PathFileType	4	(X/Y/Z)	pose_F01_0-96.trc
DataRate	CameraRate	NumFrames	NumMarkers	Units	OrigDataRate	OrigDataStartFrame	OrigNumFrames
30	30	9	21	m	30	72	96
Frame#	Time	CHip			RHip			RKnee			RAnkle			RBigToe			RSmallToe			RHeel			LHip			LKnee			LAnkle			LBigToe			LSmallToe			LHeel			Neck			Nose			RShoulder			RElbow			RWrist			LShoulder			LElbow			LWrist			
		X1	Y1	Z1	X2	Y2	Z2	X3	Y3	Z3	X4	Y4	Z4	X5	Y5	Z5	X6	Y6	Z6	X7	Y7	Z7	X8	Y8	Z8	X9	Y9	Z9	X10	Y10	Z10	X11	Y11	Z11	X12	Y12	Z12	X13	Y13	Z13	X14	Y14	Z14	X15	Y15	Z15	X16	Y16	Z16	X17	Y17	Z17	X18	Y18	Z18	X19	Y19	Z19	X20	Y20	Z20	X21	Y21	Z21	
72	2.4	-0.23276148276019776	1.8818206674980102	-0.5215828458383619	-0.2500134077201426	1.879748035996929	-0.46304700361178963	-0.24938544147437314	1.7147768282149407	-0.4151731950561955	-0.22050606533921788	1.5601761556244726	-0.4893017472452851	-0.2663667628028408	1.5290933083590135	-0.5099319749993143				-0.22894115666493367	1.584530900282586	-0.4467268845871624	-0.21432734217669486	1.8837597820522753	-0.5803742486369058	-0.20949198117784168	1.7265407195334022	-0.5975225724921964	-0.17512285251181609	1.5728338554915442	-0.6030566129662058	-0.2026308361710145	1.5324448733589418	-0.6456430533881788	-0.18596195853409792	1.5419075526759976	-0.6594785495123274	-0.16625947922228906	1.5629796921072832	-0.5811019029333455	-0.22063937058712862	2.0498716185801142	-0.5243323683646647	-0.26111255137497297	2.1026422914745333	-0.546732691415701	-0.24061437160978713	2.0447920217078774	-0.459097613209661	-0.3086665750234467	1.982726429501882	-0.4538775271136154	-0.2851990640953917	2.0454663391214165	-0.5134205069687978	-0.2006732584540994	2.0599626786443976	-0.6054530223034992	-0.2448641130853102	2.007488890802906	-0.6374865955811908	-0.2746111049113757	2.054523312866277	-0.5582008936749003
73	2.433333333333333	-0.2307262247797834	1.882392525905194	-0.5413545706462991	-0.24540413256855556	1.8781669390926734	-0.4813153106716395	-0.2488616630537912	1.716323951383097	-0.43847601722462726	-0.22050606533921788	1.5601761556244726	-0.4893017472452851	-0.2663667628028408	1.5290933083590135	-0.5099319749993143				-0.22894115666493367	1.584530900282586	-0.4467268845871624	-0.21201206668682343	1.8842835619296592	-0.6000810234560395	-0.2135004975846448	1.7250570274902388	-0.6187162430270445	-0.1751888477451241	1.5729455270594657	-0.6029804285395114	-0.20264593519450258	1.5329298285474164	-0.645480721806861	-0.18589523204970015	1.5392223033420165	-0.6590053413070913	-0.16860599598532447	1.5645842865305426	-0.5785440390939764	-0.2192650941369823	2.0482504342761114	-0.545541725506772	-0.25884913942092286	2.1019997557516015	-0.5731657594910393	-0.2375544483567714	2.0457225766469698	-0.47455983531944657	-0.3073742145035966	1.9850052265701974	-0.4819635668336817	-0.2822009050293562	2.0492931089397737	-0.5219292751145054	-0.19422616188561592	2.0541641781832514	-0.6098860377215912	-0.24713952989281462	2.0057598117760946	-0.6354197046855243	-0.27172618225859696	2.04721721898962	-0.5657188410513456
74	2.466666666666667	-0.22736831822680192	1.880057088752429	-0.5575298122115242	-0.24638171893444785	1.8783984707427779	-0.5021440481734273	-0.24420050675144606	1.7150827064722212	-0.4481754084097963	-0.22050606533921788	1.5601761556244726	-0.4893017472452851	-0.2663667628028408	1.5290933083590135	-0.5099319749993143				-0.22894115666493367	1.584530900282586	-0.4467268845871624	-0.2076065502970918	1.8805078035158074	-0.6128107845201551	-0.21177142427788143	1.7148885747518763	-0.6280917560931155	-0.17420879187129984	1.571752156620662	-0.6078329075462359	-0.20276820425438133	1.5305530360316781	-0.6452412206198141	-0.1844906570215883	1.5381447289654218	-0.6644887603312455	-0.1676179774976175	1.5633934152587639	-0.5834862523382723	-0.21282059866913386	2.0499654924724315	-0.5605608134781896	-0.25235866743900087	2.0994242300213415	-0.5859662649078604	-0.23365809507764146	2.0451669385680704	-0.49549710630356714	-0.30242390637899147	1.9980673605768724	-0.5277004078220887	-0.27662476939999536	2.0630871023192943	-0.5336395967305224	-0.18664857713390398	2.0549421715712786	-0.622097737488914	-0.2519163905173274	2.009569324681647	-0.6340009590485481	-0.26355260122147295	2.056625829602894	-0.5677594303011172
75	2.5	-0.2216903235186088	1.877014767299491	-0.5756453660010916	-0.2368367964920452	1.8737875547120122	-0.5157540957997012	-0.24332424771230446	1.713422526179253	-0.45347876435404655	-0.22050606533921788	1.5601761556244726	-0.4893017472452851	-0.2663667628028408	1.5290933083590135	-0.5099319749993143				-0.22894115666493367	1.584530900282586	-0.4467268845871624	-0.20420607723421993	1.877855601942208	-0.6405221528702822	-0.21445089314468554	1.713669080464652	-0.6461615931646946	-0.17444173271059682	1.5704332278741204	-0.6073728632300575	-0.20332632637375286	1.5313901833760295	-0.6491246409099223	-0.18432559757898484	1.537293443580173	-0.6646219671139741	-0.16516049088193274	1.5638196069182637	-0.5817234220590551	-0.20561026483211312	2.0478183494336513	-0.5723848674255825	-0.24088937900116883	2.1010559575770493	-0.5937931301093321	-0.22873228898260733	2.039102200757442	-0.503834706951976	-0.29512648206905207	2.001073787271468	-0.5479795387875689	-0.27533342739567346	2.066900520592487	-0.5550882712614734	-0.18041573872076766	2.055499967874725	-0.6488425257669918	-0.24726840054279925	2.0118088672150476	-0.6466390371264369	-0.26109784783046863	2.0622162155371595	-0.5787225124046784
76	2.533333333333333	-0.21632559239440477	1.8786887386735645	-0.5948668857629157	-0.23598227288986487	1.8770853495319453	-0.5394100565571733	-0.24343084286122452	1.7169205758999775	-0.4718248166542457	-0.22050606533921788	1.5601761556244726	-0.4893017472452851	-0.2663667628028408	1.5290933083590135	-0.5099319749993143				-0.22894115666493367	1.584530900282586	-0.4467268845871624	-0.1968280039824753	1.8803892357128509	-0.6534002810242832	-0.21533198849567387	1.7107131122061188	-0.6493071571837408	-0.1743898036572016	1.570428263666237	-0.6073759540983533	-0.2036872265380074	1.5302973650485487	-0.6484902191139913	-0.3066996527068426	1.4822041326914053	-1.100626683018825	-0.1643575507797167	1.5619975702081057	-0.5826951941757389	-0.20081890968418734	2.0440916609167945	-0.5923340759835678	-0.231398629495591	2.0992029458709904	-0.5896792069322361	-0.2226992064900053	2.0344959265636593	-0.517478880805747	-0.2935572610415413	2.0073307598246246	-0.5706803507330829	-0.2699120498175998	2.0691837540310836	-0.5646233908766924	-0.17066099096691245	2.051082577966534	-0.6625330596930781	-0.24047169411517688	2.0191423876685297	-0.658771290897687	-0.2566459382043611	2.065013618381411	-0.5884927769997234
77	2.566666666666667	-0.21123546896255543	1.8789529004520915	-0.604980730664011	-0.23074156491311923	1.8771711240713909	-0.5495666718228307	-0.24332597823244298	1.7155060804323596	-0.4806017643739747	-0.22050606533921788	1.5601761556244726	-0.4893017472452851	-0.2663667628028408	1.5290933083590135	-0.5099319749993143				-0.22894115666493367	1.584530900282586	-0.4467268845871624	-0.19032630756627067	1.8807023446603917	-0.660536814136458	-0.21218934912934423	1.709534760421726	-0.6567555195129039	-0.17439936640903103	1.5704592527012238	-0.6074426592055743	-0.20334620053939487	1.5312807383589755	-0.6491187014180422	-0.18636401584226467	1.5366834909836804	-0.6624812535873578	-0.16490459412039757	1.5623398592516886	-0.5818810588547176	-0.1943097150234574	2.043347205197614	-0.6070297205998961	-0.2332571911490745	2.103654093184416	-0.632938705141885	-0.21718539697519348	2.0361554932238204	-0.5443140406620549	-0.293816165482495	2.012408063584242	-0.5987416675490508	-0.27011971318460465	2.0672656208943225	-0.5649063597331991	-0.16490462110277593	2.0529831277212036	-0.6723621402532817	-0.23367498768755454	2.0264759081220123	-0.6709035446689371	-0.2521940285782536	2.0678110212256624	-0.5982630415947682
78	2.6	-0.21213734760869402	1.8741110997805122	-0.6162473957185164	-0.22891437423807917	1.873744058424906	-0.5600329720598368	-0.23932946518427212	1.715408894110041	-0.4853403548699825	-0.22050606533921788	1.5601761556244726	-0.4893017472452851	-0.2663667628028408	1.5290933083590135	-0.5099319749993143				-0.22894115666493367	1.584530900282586	-0.4467268845871624	-0.19224292507848198	1.8754985246141826	-0.6751106304660464	-0.21086383527659894	1.7096657395813235	-0.6622016312605784	-0.1744759748324577	1.5704063174982645	-0.6074957239102331	-0.20445800684789975	1.5293286495889995	-0.6517552804667924	-0.3068390712209579	1.4816848247848418	-1.100666454215298	-0.16495232004037474	1.5623178859878952	-0.5819505453988869	-0.19082255308058932	2.0413577019956244	-0.6234849435986711	-0.21606887599503263	2.1020618541223	-0.5949160030363925	-0.21432265995983987	2.0331790726593995	-0.5522344875755668	-0.286177036864147	2.0177905319358422	-0.6023846716631519	-0.2650456819072395	2.0661038864444583	-0.5744313915557008	-0.1651525159364154	2.0527917589133025	-0.7039809610436134	-0.23962785182580332	2.022997179258562	-0.6807596595242484	-0.24774211895214612	2.070608424069914	-0.6080333061898131
79	2.6333333333333333	-0.20528235025152472	1.875871299082327	-0.631853698331373	-0.2263724287126272	1.8741937230735182	-0.5709544676264222	-0.23821268170615148	1.7157611486469557	-0.49089850158735016	-0.22050606533921788	1.5601761556244726	-0.4893017472452851	-0.2663667628028408	1.5290933083590135	-0.5099319749993143				-0.22894115666493367	1.584530900282586	-0.4467268845871624	-0.18712110483203961	1.8762439179677526	-0.6882562560553094	-0.21006287323747116	1.7071800592733324	-0.6668508640188491	-0.1747228798108397	1.5691471506099453	-0.6069429675040574	-0.20431403920600805	1.5310912278067292	-0.6522863821933207	-0.3068617931791428	1.481366374925079	-1.100494480425306	-0.16614538099228263	1.5611098419486318	-0.5844625014305342	-0.18535669520135326	2.040748728258892	-0.6329136706294065	-0.22818102905851648	2.104333716955465	-0.6534569484898355	-0.20918639924744029	2.0335934073575777	-0.5622156483219345	-0.28059995063242593	2.015133083211646	-0.6279652797188705	-0.2647066801207688	2.0649537940521894	-0.5900622909549724	-0.15848202783687929	2.0518009727949256	-0.710308733047998	-0.23564764833850355	2.0259368000024804	-0.687466082381682	-0.24609536869914753	2.0670649452569254	-0.6155394792343819
80	2.6666666666666665	-0.20344481271317408	1.8801101011800303	-0.6378831596772475	-0.2229689837654482	1.8783778374169273	-0.5792036126209408	-0.2375343081777775	1.7183023726880973	-0.49643125044303055	-0.22050606533921788	1.5601761556244726	-0.4893017472452851	-0.2663667628028408	1.5290933083590135	-0.5099319749993143				-0.22894115666493367	1.584530900282586	-0.4467268845871624	-0.18298612887820814	1.8804536958897087	-0.6964750802561372	-0.20375983093262362	1.710110932335418	-0.6653720670717066	-0.1726573209118325	1.5692607068056206	-0.6091168952127	-0.20351523038482136	1.529643505442068	-0.6486006196747666	-0.3045134847141018	1.4816992873331352	-1.1042045340385493	-0.16666387203400765	1.5613107097652967	-0.5837026176352479	-0.18667267371649687	2.0458623728420955	-0.6487663908176083	-0.22439140463827797	2.1107715369967415	-0.6704063772019102	-0.21068221173049295	2.040661961022696	-0.578194524794989	-0.2776510309133236	2.013852804937013	-0.6271141380441361	-0.26271739454183135	2.06351980712027	-0.6013929760699617	-0.15329995143859595	2.053460049357064	-0.7124523322675979	-0.2325662182159059	2.0161110151026733	-0.7032859371690927	-0.24444861844614893	2.063521466443937	-0.6230456522789507
